<svg width="40" height="40" viewBox="0 0 40 40" fill="none" xmlns="http://www.w3.org/2000/svg">
<rect x="0.5" y="0.5" width="39" height="39" rx="19.5" stroke="#F0F0F0"/>
<path opacity="0.4" d="M20.6667 14.6667H14" stroke="#212121" stroke-linecap="round" stroke-linejoin="round"/>
<path opacity="0.4" d="M19.3333 24.6667H14" stroke="#212121" stroke-linecap="round" stroke-linejoin="round"/>
<path opacity="0.4" d="M25.9999 24.6667H23.3333" stroke="#212121" stroke-linecap="round" stroke-linejoin="round"/>
<path d="M25.9999 19.6667H19.3333" stroke="#212121" stroke-linecap="round" stroke-linejoin="round"/>
<path opacity="0.4" d="M26.0001 14.6667H24.6667" stroke="#212121" stroke-linecap="round" stroke-linejoin="round"/>
<path d="M15.3333 19.6667H14" stroke="#212121" stroke-linecap="round" stroke-linejoin="round"/>
<path d="M21.6667 13.3333C21.9773 13.3333 22.1327 13.3333 22.2552 13.3841C22.4185 13.4517 22.5483 13.5815 22.616 13.7449C22.6667 13.8674 22.6667 14.0227 22.6667 14.3333V15C22.6667 15.3106 22.6667 15.4659 22.616 15.5884C22.5483 15.7518 22.4185 15.8816 22.2552 15.9492C22.1327 16 21.9773 16 21.6667 16C21.3561 16 21.2008 16 21.0783 15.9492C20.9149 15.8816 20.7851 15.7518 20.7175 15.5884C20.6667 15.4659 20.6667 15.3106 20.6667 15V14.3333C20.6667 14.0227 20.6667 13.8674 20.7175 13.7449C20.7851 13.5815 20.9149 13.4517 21.0783 13.3841C21.2008 13.3333 21.3561 13.3333 21.6667 13.3333Z" stroke="#212121" stroke-linecap="round" stroke-linejoin="round"/>
<path d="M20.3333 23.3333C20.6439 23.3333 20.7992 23.3333 20.9217 23.384C21.0851 23.4517 21.2149 23.5815 21.2825 23.7448C21.3333 23.8674 21.3333 24.0227 21.3333 24.3333V25C21.3333 25.3106 21.3333 25.4659 21.2825 25.5884C21.2149 25.7518 21.0851 25.8816 20.9217 25.9492C20.7992 26 20.6439 26 20.3333 26C20.0227 26 19.8673 26 19.7448 25.9492C19.5815 25.8816 19.4517 25.7518 19.384 25.5884C19.3333 25.4659 19.3333 25.3106 19.3333 25V24.3333C19.3333 24.0227 19.3333 23.8674 19.384 23.7448C19.4517 23.5815 19.5815 23.4517 19.7448 23.384C19.8673 23.3333 20.0227 23.3333 20.3333 23.3333Z" stroke="#212121" stroke-linecap="round" stroke-linejoin="round"/>
<path d="M18.3333 18.3333C18.6439 18.3333 18.7992 18.3333 18.9217 18.3841C19.0851 18.4517 19.2149 18.5815 19.2825 18.7448C19.3333 18.8674 19.3333 19.0227 19.3333 19.3333V20C19.3333 20.3106 19.3333 20.4659 19.2825 20.5884C19.2149 20.7518 19.0851 20.8816 18.9217 20.9492C18.7992 21 18.6439 21 18.3333 21C18.0226 21 17.8673 21 17.7448 20.9492C17.5814 20.8816 17.4517 20.7518 17.384 20.5884C17.3333 20.4659 17.3333 20.3106 17.3333 20V19.3333C17.3333 19.0227 17.3333 18.8674 17.384 18.7448C17.4517 18.5815 17.5814 18.4517 17.7448 18.3841C17.8673 18.3333 18.0226 18.3333 18.3333 18.3333Z" stroke="#212121" stroke-linecap="round" stroke-linejoin="round"/>
</svg>
