<svg width="88" height="40" viewBox="0 0 88 40" fill="none" xmlns="http://www.w3.org/2000/svg">
<rect x="0.5" y="0.5" width="39" height="39" rx="19.5" stroke="#6CC2C2"/>
<path fill-rule="evenodd" clip-rule="evenodd" d="M19.9999 27.1667C16.0419 27.1667 12.8333 23.9581 12.8333 20C12.8333 16.042 16.0419 12.8333 19.9999 12.8333C23.958 12.8333 27.1666 16.042 27.1666 20C27.1666 23.9581 23.958 27.1667 19.9999 27.1667ZM19.9999 15.6667L16.9999 18.6667V23H22.3333L23.6666 18.6667H20.3333L20.9999 17L19.9999 15.6667Z" fill="#6CC2C2"/>
<rect x="48.5" y="0.5" width="39" height="39" rx="19.5" stroke="#F0F0F0"/>
<path d="M61.3334 20C61.3334 23.6819 64.3182 26.6667 68.0001 26.6667C71.682 26.6667 74.6667 23.6819 74.6667 20C74.6667 16.3181 71.682 13.3333 68.0001 13.3333C64.3182 13.3333 61.3334 16.3181 61.3334 20Z" stroke="#212121"/>
<path d="M71 21.3333L68 24.3333L67 23L67.6667 21.3333L64.3333 21.3333L65.6667 17L71 17L71 21.3333Z" stroke="#212121" stroke-linecap="round" stroke-linejoin="round"/>
</svg>
