<svg width="72" height="24" viewBox="0 0 72 24" fill="none" xmlns="http://www.w3.org/2000/svg">
<path d="M23 10C23 9.46957 22.7893 8.96086 22.4142 8.58579C22.0391 8.21071 21.5304 8 21 8H14.68L15.64 3.43C15.66 3.33 15.67 3.22 15.67 3.11C15.67 2.7 15.5 2.32 15.23 2.05L14.17 1L7.59 7.58C7.22 7.95 7 8.45 7 9V19C7 19.5304 7.21071 20.0391 7.58579 20.4142C7.96086 20.7893 8.46957 21 9 21H18C18.83 21 19.54 20.5 19.84 19.78L22.86 12.73C22.95 12.5 23 12.26 23 12V10ZM1 21H5V9H1V21Z" fill="#979797"/>
<path d="M67 15V3H71V15H67ZM63 3C63.5304 3 64.0391 3.21071 64.4142 3.58579C64.7893 3.96086 65 4.46957 65 5V15C65 15.55 64.78 16.05 64.41 16.41L57.83 23L56.77 21.94C56.5 21.67 56.33 21.3 56.33 20.88L56.36 20.57L57.31 16H51C50.4696 16 49.9609 15.7893 49.5858 15.4142C49.2107 15.0391 49 14.5304 49 14V12C49 11.74 49.05 11.5 49.14 11.27L52.16 4.22C52.46 3.5 53.17 3 54 3H63ZM63 5H53.97L51 12V14H59.78L58.65 19.32L63 14.97V5Z" fill="#979797"/>
</svg>
