<svg width="24" height="24" viewBox="0 0 24 24" fill="none" xmlns="http://www.w3.org/2000/svg">
<path d="M12 22C17.5228 22 22 17.5228 22 12C22 6.47715 17.5228 2 12 2C6.47715 2 2 6.47715 2 12C2 17.5228 6.47715 22 12 22Z" stroke="black" stroke-width="1.5"/>
<path d="M15.4531 12.3948C15.3016 13.0215 14.5857 13.4644 13.1539 14.3502C11.7697 15.2064 11.0777 15.6346 10.5199 15.4625C10.2893 15.3913 10.0793 15.2562 9.90982 15.07C9.5 14.6198 9.5 13.7465 9.5 12C9.5 10.2535 9.5 9.38018 9.90982 8.92995C10.0793 8.74381 10.2893 8.60868 10.5199 8.53753C11.0777 8.36544 11.7697 8.79357 13.1539 9.64983C14.5857 10.5356 15.3016 10.9785 15.4531 11.6052C15.5156 11.8639 15.5156 12.1361 15.4531 12.3948Z" stroke="black" stroke-width="1.5" stroke-linejoin="round"/>
</svg>
